# xmcd CD database file
#
# Track frame offsets:
#	150
#	11220
#	25283
#	33959
#	49833
#	60920
#	74249
#	85626
#	96036
#	111547
#
# Disc length: 1664 seconds
#
# Revision: 0
# Processed by: cddbd v1.5.1PL0 Copyright (c) Steve Scherf et al.
# Submitted via: CDex 1.51
#
DISCID=83067e0a
DTITLE=La Playa Sextet - Vaya Means Go!
DYEAR=2001
DGENRE=Salsa
TTITLE0=La meneadera
TTITLE1=Se me fue la montuna
TTITLE2=Salsa
TTITLE3=Salta perico
TTITLE4=Yo se quien tu eres
TTITLE5=Que me traigan el guaguanco
TTITLE6=Le-lo-lay
TTITLE7=Sugar's Delight
TTITLE8=Sabor en el alma
TTITLE9=Nosotros los hombres
EXTD=YEAR: 2001
EXTT0=
EXTT1=
EXTT2=
EXTT3=
EXTT4=
EXTT5=
EXTT6=
EXTT7=
EXTT8=
EXTT9=
PLAYORDER=
